<svg width="82" height="87" viewBox="0 0 82 87" fill="none" xmlns="http://www.w3.org/2000/svg">
<path d="M56.083 21.8992V16.7258H25.283V21.8992H56.083ZM45.8564 37.2992V32.1258H25.283V37.2992H45.8564ZM25.283 24.4258V29.5992H56.083V24.4258H25.283ZM61.2564 6.49922C62.62 6.49922 63.783 7.02057 64.7455 8.06328C65.7882 9.02578 66.3096 10.1888 66.3096 11.5523V42.3523C66.3096 43.7159 65.7882 44.919 64.7455 45.9617C63.783 47.0044 62.62 47.5258 61.2564 47.5258H25.283L15.0564 57.7523V11.5523C15.0564 10.1888 15.5377 9.02578 16.5002 8.06328C17.5429 7.02057 18.746 6.49922 20.1096 6.49922H61.2564Z" fill="#00BCD4"/>
<path d="M0.58535 82V80.4619L1.94765 80.1982V71.0137L0.58535 70.75V69.2031H10.7719V72.71H8.80312L8.68887 71.1807H4.51406V74.7051H8.99648V76.6826H4.51406V80.1982L5.88515 80.4619V82H0.58535ZM11.7387 82V80.4619L12.9691 80.1982V74.3008L11.6068 74.0371V72.4902H15.3598L15.4564 73.668L15.474 73.8789C15.7084 73.3633 15.9984 72.9736 16.3441 72.71C16.6898 72.4463 17.1029 72.3145 17.5834 72.3145C17.7357 72.3145 17.9027 72.3291 18.0844 72.3584C18.266 72.3818 18.4271 72.4141 18.5678 72.4551L18.2953 74.8193L17.0209 74.749C16.6576 74.7314 16.3617 74.793 16.1332 74.9336C15.9105 75.0742 15.7113 75.2764 15.5355 75.54V80.1982L16.766 80.4619V82H11.7387ZM23.7094 82.1846C22.8012 82.1846 22.0072 81.9854 21.3275 81.5869C20.6479 81.1826 20.1205 80.6289 19.7455 79.9258C19.3764 79.2227 19.1918 78.4199 19.1918 77.5176V77.166C19.1918 76.2227 19.3676 75.3877 19.7191 74.6611C20.0707 73.9287 20.5658 73.3545 21.2045 72.9385C21.849 72.5166 22.6078 72.3086 23.4809 72.3145C24.3422 72.3145 25.0658 72.4844 25.6518 72.8242C26.2377 73.1641 26.683 73.6533 26.9877 74.292C27.2924 74.9307 27.4447 75.7041 27.4447 76.6123V78.0098H21.8549L21.8373 78.0625C21.8725 78.4785 21.975 78.8506 22.1449 79.1787C22.3207 79.501 22.5668 79.7559 22.8832 79.9434C23.1996 80.125 23.5834 80.2158 24.0346 80.2158C24.5033 80.2158 24.9398 80.1572 25.3441 80.04C25.7543 79.917 26.1527 79.7383 26.5395 79.5039L27.2338 81.0859C26.8412 81.4023 26.3461 81.666 25.7484 81.877C25.1566 82.082 24.477 82.1846 23.7094 82.1846ZM21.8725 76.3135H25.0453V76.085C25.0453 75.6982 24.9926 75.3672 24.8871 75.0918C24.7875 74.8105 24.6234 74.5938 24.3949 74.4414C24.1723 74.2891 23.8822 74.2129 23.5248 74.2129C23.185 74.2129 22.8979 74.3037 22.6635 74.4854C22.4291 74.6611 22.2445 74.9043 22.1098 75.2148C21.9809 75.5254 21.893 75.877 21.8461 76.2695L21.8725 76.3135ZM33.2191 82.1846C32.3109 82.1846 31.517 81.9854 30.8373 81.5869C30.1576 81.1826 29.6303 80.6289 29.2553 79.9258C28.8861 79.2227 28.7016 78.4199 28.7016 77.5176V77.166C28.7016 76.2227 28.8773 75.3877 29.2289 74.6611C29.5805 73.9287 30.0756 73.3545 30.7143 72.9385C31.3588 72.5166 32.1176 72.3086 32.9906 72.3145C33.852 72.3145 34.5756 72.4844 35.1615 72.8242C35.7475 73.1641 36.1928 73.6533 36.4975 74.292C36.8021 74.9307 36.9545 75.7041 36.9545 76.6123V78.0098H31.3646L31.3471 78.0625C31.3822 78.4785 31.4848 78.8506 31.6547 79.1787C31.8305 79.501 32.0766 79.7559 32.393 79.9434C32.7094 80.125 33.0932 80.2158 33.5443 80.2158C34.0131 80.2158 34.4496 80.1572 34.8539 80.04C35.2641 79.917 35.6625 79.7383 36.0492 79.5039L36.7436 81.0859C36.351 81.4023 35.8559 81.666 35.2582 81.877C34.6664 82.082 33.9867 82.1846 33.2191 82.1846ZM31.3822 76.3135H34.5551V76.085C34.5551 75.6982 34.5023 75.3672 34.3969 75.0918C34.2973 74.8105 34.1332 74.5938 33.9047 74.4414C33.682 74.2891 33.392 74.2129 33.0346 74.2129C32.6947 74.2129 32.4076 74.3037 32.1732 74.4854C31.9389 74.6611 31.7543 74.9043 31.6195 75.2148C31.4906 75.5254 31.4027 75.877 31.3559 76.2695L31.3822 76.3135ZM48.5824 82.1846C47.3402 82.1846 46.2592 81.9268 45.3393 81.4111C44.4193 80.8896 43.7074 80.1543 43.2035 79.2051C42.7055 78.25 42.4564 77.1221 42.4564 75.8213V75.3906C42.4564 74.1484 42.6967 73.0498 43.1771 72.0947C43.6635 71.1338 44.3549 70.3809 45.2514 69.8359C46.1479 69.291 47.2143 69.0186 48.4506 69.0186C49.3178 69.0186 50.1293 69.1416 50.8852 69.3877C51.6469 69.6338 52.3266 70.0088 52.9242 70.5127V73.6064H51.017L50.7533 71.6641C50.56 71.5234 50.349 71.4033 50.1205 71.3037C49.892 71.2041 49.643 71.1279 49.3734 71.0752C49.1098 71.0225 48.8227 70.9961 48.5121 70.9961C47.7855 70.9961 47.1615 71.1748 46.64 71.5322C46.1186 71.8896 45.7172 72.3965 45.4359 73.0527C45.1605 73.7031 45.0229 74.4766 45.0229 75.373V75.8213C45.0229 76.7178 45.1693 77.4941 45.4623 78.1504C45.7553 78.8066 46.1713 79.3164 46.7104 79.6797C47.2494 80.0371 47.8881 80.2158 48.6264 80.2158C48.9955 80.2158 49.3646 80.1748 49.7338 80.0928C50.1088 80.0049 50.4486 79.8936 50.7533 79.7588L51.017 77.957H52.9242V81.0156C52.4262 81.3438 51.8051 81.6221 51.0609 81.8506C50.3168 82.0732 49.4906 82.1846 48.5824 82.1846ZM54.0316 82V80.4619L55.2709 80.1982V70.0996L53.8998 69.8359V68.2891H57.8285V73.7031C58.1273 73.2637 58.4965 72.9238 58.9359 72.6836C59.3812 72.4375 59.8852 72.3145 60.4477 72.3145C61.4027 72.3145 62.1586 72.6338 62.7152 73.2725C63.2777 73.9053 63.559 74.8867 63.559 76.2168V80.1982L64.7895 80.4619V82H59.8852V80.4619L60.9926 80.1982V76.1992C60.9926 75.5137 60.8637 75.0273 60.6059 74.7402C60.348 74.4531 59.9701 74.3096 59.4721 74.3096C59.1264 74.3096 58.81 74.3828 58.5229 74.5293C58.2416 74.6699 58.0102 74.8779 57.8285 75.1533V80.1982L58.9359 80.4619V82H54.0316ZM68.7973 82.1846C67.8539 82.1846 67.1039 81.9326 66.5473 81.4287C65.9906 80.9189 65.7123 80.2275 65.7123 79.3545C65.7123 78.7568 65.8734 78.2324 66.1957 77.7812C66.5238 77.3301 67.0043 76.9756 67.6371 76.7178C68.2758 76.46 69.0609 76.3311 69.9926 76.3311H71.2494V75.6279C71.2494 75.1709 71.1146 74.8018 70.8451 74.5205C70.5814 74.2334 70.183 74.0898 69.6498 74.0898C69.3744 74.0898 69.1283 74.125 68.9115 74.1953C68.6947 74.2598 68.4955 74.3535 68.3139 74.4766L68.1117 75.7334H66.266L66.2309 73.2637C66.7289 72.9824 67.268 72.7539 67.848 72.5781C68.4281 72.4023 69.0756 72.3145 69.7904 72.3145C71.0326 72.3145 72.0141 72.6045 72.7348 73.1846C73.4555 73.7588 73.8158 74.582 73.8158 75.6543V79.5742C73.8158 79.7031 73.8158 79.832 73.8158 79.9609C73.8217 80.084 73.8334 80.2041 73.851 80.3213L74.8441 80.4619V82H71.6625C71.598 81.8359 71.5336 81.6602 71.4691 81.4727C71.4047 81.2852 71.3578 81.0977 71.3285 80.9102C71.0238 81.2969 70.6635 81.6074 70.2475 81.8418C69.8373 82.0703 69.3539 82.1846 68.7973 82.1846ZM69.4828 80.2861C69.8402 80.2861 70.1801 80.207 70.5023 80.0488C70.8246 79.8848 71.0736 79.6709 71.2494 79.4072V77.9043H69.9838C69.4213 77.9043 68.9936 78.0332 68.7006 78.291C68.4135 78.5488 68.2699 78.8594 68.2699 79.2227C68.2699 79.5625 68.3754 79.8262 68.5863 80.0137C68.8031 80.1953 69.102 80.2861 69.4828 80.2861ZM79.1771 82.1846C78.2924 82.1846 77.6098 81.9414 77.1293 81.4551C76.6547 80.9688 76.4174 80.1982 76.4174 79.1436V74.292H75.1078V72.4902H76.4174V70.1611H78.975V72.4902H80.724V74.292H78.975V79.1348C78.975 79.5039 79.0512 79.7676 79.2035 79.9258C79.3617 80.084 79.5756 80.1631 79.8451 80.1631C79.9916 80.1631 80.1439 80.1543 80.3021 80.1367C80.4662 80.1133 80.6068 80.0898 80.724 80.0664L80.9437 81.9209C80.6801 81.9971 80.393 82.0586 80.0824 82.1055C79.7777 82.1582 79.476 82.1846 79.1771 82.1846Z" fill="black"/>
</svg>
