<svg width="185" height="87" viewBox="0 0 185 87" fill="none" xmlns="http://www.w3.org/2000/svg">
<path d="M86.4939 44.9992L107.067 24.4258L103.458 20.8164L86.4939 37.6602L79.8768 31.043L76.2674 34.6523L86.4939 44.9992ZM91.6674 3.85235L114.767 14.1992V29.5992C114.767 36.7378 112.562 43.2747 108.15 49.2102C103.739 55.0654 98.2445 58.7951 91.6674 60.3992C85.0903 58.7951 79.596 55.0654 75.1846 49.2102C70.7731 43.2747 68.5674 36.7378 68.5674 29.5992V14.1992L91.6674 3.85235Z" fill="#4CAF50"/>
<path d="M9.76855 82.1846C8.75488 82.1846 7.86133 82.0088 7.08789 81.6572C6.32031 81.3057 5.72266 80.7959 5.29492 80.1279C4.86719 79.46 4.65332 78.6484 4.65332 77.6934V71.0137L3.29102 70.75V69.2031H8.59082V70.75L7.21973 71.0137V77.6934C7.21973 78.2559 7.32227 78.7246 7.52734 79.0996C7.73242 79.4746 8.02539 79.7559 8.40625 79.9434C8.78711 80.125 9.24121 80.2158 9.76855 80.2158C10.3076 80.2158 10.7676 80.125 11.1484 79.9434C11.5352 79.7559 11.8311 79.4746 12.0361 79.0996C12.2412 78.7246 12.3438 78.2559 12.3438 77.6934V71.0137L10.9814 70.75V69.2031H16.2812V70.75L14.9102 71.0137V77.6934C14.9102 78.6484 14.6934 79.4629 14.2598 80.1367C13.832 80.8047 13.2314 81.3145 12.458 81.666C11.6904 82.0117 10.7939 82.1846 9.76855 82.1846ZM21.2559 82.1846C20.5469 82.1846 19.8848 82.1172 19.2695 81.9824C18.6602 81.8477 18.0742 81.6543 17.5117 81.4023L17.4854 78.7129H19.2695L19.6123 80.084C19.8115 80.1836 20.0283 80.2627 20.2627 80.3213C20.5029 80.3799 20.7754 80.4092 21.0801 80.4092C21.6543 80.4092 22.0586 80.3154 22.293 80.1279C22.5273 79.9404 22.6445 79.7061 22.6445 79.4248C22.6445 79.1611 22.5186 78.9297 22.2666 78.7305C22.0205 78.5254 21.5254 78.3467 20.7812 78.1943C19.6562 77.96 18.8271 77.5967 18.2939 77.1045C17.7607 76.6123 17.4941 75.9824 17.4941 75.2148C17.4941 74.6875 17.626 74.207 17.8896 73.7734C18.1592 73.3398 18.5664 72.9912 19.1113 72.7275C19.6621 72.4639 20.3652 72.332 21.2207 72.332C21.9355 72.332 22.5889 72.4023 23.1807 72.543C23.7783 72.6777 24.2793 72.8564 24.6836 73.0791L24.71 75.6807H22.9346L22.6621 74.4326C22.5039 74.3154 22.3164 74.2275 22.0996 74.1689C21.8887 74.1104 21.6484 74.0811 21.3789 74.0811C20.9277 74.0811 20.582 74.1719 20.3418 74.3535C20.1016 74.5352 19.9814 74.7695 19.9814 75.0566C19.9814 75.2207 20.0225 75.373 20.1045 75.5137C20.1924 75.6543 20.3623 75.7861 20.6143 75.9092C20.8662 76.0322 21.2324 76.1494 21.7129 76.2607C22.8906 76.5303 23.749 76.8906 24.2881 77.3418C24.8271 77.7871 25.0967 78.4141 25.0967 79.2227C25.0967 80.1074 24.7744 80.8223 24.1299 81.3672C23.4912 81.9121 22.5332 82.1846 21.2559 82.1846ZM30.2998 82.1846C29.2979 82.1846 28.5098 81.8682 27.9355 81.2354C27.3672 80.5967 27.083 79.6064 27.083 78.2646V74.3008L26.0371 74.0371V72.4902H27.083H29.6494V78.2822C29.6494 78.9619 29.7666 79.4512 30.001 79.75C30.2412 80.043 30.6016 80.1895 31.082 80.1895C31.4629 80.1895 31.7998 80.1162 32.0928 79.9697C32.3857 79.8174 32.626 79.6035 32.8135 79.3281V74.3008L31.6797 74.0371V72.4902H32.8135H35.3799V80.1982L36.5225 80.4619V82H33.1299L32.9541 80.7959C32.6553 81.2412 32.2803 81.584 31.8291 81.8242C31.3779 82.0645 30.8682 82.1846 30.2998 82.1846ZM40.6621 82.1846C39.7188 82.1846 38.9688 81.9326 38.4121 81.4287C37.8555 80.9189 37.5771 80.2275 37.5771 79.3545C37.5771 78.7568 37.7383 78.2324 38.0605 77.7812C38.3887 77.3301 38.8691 76.9756 39.502 76.7178C40.1406 76.46 40.9258 76.3311 41.8574 76.3311H43.1143V75.6279C43.1143 75.1709 42.9795 74.8018 42.71 74.5205C42.4463 74.2334 42.0479 74.0898 41.5146 74.0898C41.2393 74.0898 40.9932 74.125 40.7764 74.1953C40.5596 74.2598 40.3604 74.3535 40.1787 74.4766L39.9766 75.7334H38.1309L38.0957 73.2637C38.5938 72.9824 39.1328 72.7539 39.7129 72.5781C40.293 72.4023 40.9404 72.3145 41.6553 72.3145C42.8975 72.3145 43.8789 72.6045 44.5996 73.1846C45.3203 73.7588 45.6807 74.582 45.6807 75.6543V79.5742C45.6807 79.7031 45.6807 79.832 45.6807 79.9609C45.6865 80.084 45.6982 80.2041 45.7158 80.3213L46.709 80.4619V82H43.5273C43.4629 81.8359 43.3984 81.6602 43.334 81.4727C43.2695 81.2852 43.2227 81.0977 43.1934 80.9102C42.8887 81.2969 42.5283 81.6074 42.1123 81.8418C41.7021 82.0703 41.2188 82.1846 40.6621 82.1846ZM41.3477 80.2861C41.7051 80.2861 42.0449 80.207 42.3672 80.0488C42.6895 79.8848 42.9385 79.6709 43.1143 79.4072V77.9043H41.8486C41.2861 77.9043 40.8584 78.0332 40.5654 78.291C40.2783 78.5488 40.1348 78.8594 40.1348 79.2227C40.1348 79.5625 40.2402 79.8262 40.4512 80.0137C40.668 80.1953 40.9668 80.2861 41.3477 80.2861ZM40.1963 70.6885L41.9453 68.2891H44.6611L44.6787 68.3418L42.2529 70.6885H40.2666H40.1963ZM47.8164 82V80.4619L49.0469 80.1982V74.3008L47.6846 74.0371V72.4902H51.4375L51.5342 73.668L51.5518 73.8789C51.7861 73.3633 52.0762 72.9736 52.4219 72.71C52.7676 72.4463 53.1807 72.3145 53.6611 72.3145C53.8135 72.3145 53.9805 72.3291 54.1621 72.3584C54.3438 72.3818 54.5049 72.4141 54.6455 72.4551L54.373 74.8193L53.0986 74.749C52.7354 74.7314 52.4395 74.793 52.2109 74.9336C51.9883 75.0742 51.7891 75.2764 51.6133 75.54V80.1982L52.8438 80.4619V82H47.8164ZM55.4541 82V80.4619L56.6934 80.1982V74.3008L55.3223 74.0371V72.4902H59.2598V80.1982L60.4902 80.4619V82H55.4541ZM56.6055 70.4775V68.2891H59.2598V70.4775H56.6055ZM65.8867 82.1846C64.9492 82.1846 64.1436 81.9795 63.4697 81.5693C62.7959 81.1592 62.2803 80.5908 61.9229 79.8643C61.5654 79.1318 61.3867 78.291 61.3867 77.3418V77.1572C61.3867 76.2139 61.5654 75.3789 61.9229 74.6523C62.2803 73.9199 62.793 73.3486 63.4609 72.9385C64.1348 72.5225 64.9375 72.3145 65.8691 72.3145C66.8125 72.3145 67.6182 72.5225 68.2861 72.9385C68.9541 73.3486 69.4668 73.917 69.8242 74.6436C70.1816 75.3701 70.3604 76.208 70.3604 77.1572V77.3418C70.3604 78.291 70.1816 79.1318 69.8242 79.8643C69.4668 80.5908 68.9541 81.1592 68.2861 81.5693C67.6182 81.9795 66.8184 82.1846 65.8867 82.1846ZM65.8867 80.2158C66.332 80.2158 66.6953 80.0957 66.9766 79.8555C67.2578 79.6152 67.4658 79.2812 67.6006 78.8535C67.7354 78.4199 67.8027 77.916 67.8027 77.3418V77.1572C67.8027 76.5947 67.7354 76.0996 67.6006 75.6719C67.4658 75.2383 67.2549 74.9014 66.9678 74.6611C66.6865 74.415 66.3203 74.292 65.8691 74.292C65.4297 74.292 65.0664 74.415 64.7793 74.6611C64.4922 74.9014 64.2812 75.2383 64.1465 75.6719C64.0176 76.0996 63.9531 76.5947 63.9531 77.1572V77.3418C63.9531 77.916 64.0176 78.4199 64.1465 78.8535C64.2812 79.2871 64.4922 79.624 64.7793 79.8643C65.0664 80.0986 65.4355 80.2158 65.8867 80.2158ZM75.5898 82.1846C74.8809 82.1846 74.2188 82.1172 73.6035 81.9824C72.9941 81.8477 72.4082 81.6543 71.8457 81.4023L71.8193 78.7129H73.6035L73.9463 80.084C74.1455 80.1836 74.3623 80.2627 74.5967 80.3213C74.8369 80.3799 75.1094 80.4092 75.4141 80.4092C75.9883 80.4092 76.3926 80.3154 76.627 80.1279C76.8613 79.9404 76.9785 79.7061 76.9785 79.4248C76.9785 79.1611 76.8525 78.9297 76.6006 78.7305C76.3545 78.5254 75.8594 78.3467 75.1152 78.1943C73.9902 77.96 73.1611 77.5967 72.6279 77.1045C72.0947 76.6123 71.8281 75.9824 71.8281 75.2148C71.8281 74.6875 71.96 74.207 72.2236 73.7734C72.4932 73.3398 72.9004 72.9912 73.4453 72.7275C73.9961 72.4639 74.6992 72.332 75.5547 72.332C76.2695 72.332 76.9229 72.4023 77.5146 72.543C78.1123 72.6777 78.6133 72.8564 79.0176 73.0791L79.0439 75.6807H77.2686L76.9961 74.4326C76.8379 74.3154 76.6504 74.2275 76.4336 74.1689C76.2227 74.1104 75.9824 74.0811 75.7129 74.0811C75.2617 74.0811 74.916 74.1719 74.6758 74.3535C74.4355 74.5352 74.3154 74.7695 74.3154 75.0566C74.3154 75.2207 74.3564 75.373 74.4385 75.5137C74.5264 75.6543 74.6963 75.7861 74.9482 75.9092C75.2002 76.0322 75.5664 76.1494 76.0469 76.2607C77.2246 76.5303 78.083 76.8906 78.6221 77.3418C79.1611 77.7871 79.4307 78.4141 79.4307 79.2227C79.4307 80.1074 79.1084 80.8223 78.4639 81.3672C77.8252 81.9121 76.8672 82.1846 75.5898 82.1846ZM90.0127 82L85.8994 70.8906L84.7568 70.75V69.2031H89.8457V70.75L88.6943 70.9258L91.208 78.4756L91.4014 79.1787H91.4541L91.6387 78.4932L94.1523 70.9258L92.8076 70.75V69.2031H97.6592V70.75L96.499 70.8906L92.6406 82H90.0127ZM102.66 82.1846C101.752 82.1846 100.958 81.9854 100.278 81.5869C99.5986 81.1826 99.0713 80.6289 98.6963 79.9258C98.3271 79.2227 98.1426 78.4199 98.1426 77.5176V77.166C98.1426 76.2227 98.3184 75.3877 98.6699 74.6611C99.0215 73.9287 99.5166 73.3545 100.155 72.9385C100.8 72.5166 101.559 72.3086 102.432 72.3145C103.293 72.3145 104.017 72.4844 104.603 72.8242C105.188 73.1641 105.634 73.6533 105.938 74.292C106.243 74.9307 106.396 75.7041 106.396 76.6123V78.0098H100.806L100.788 78.0625C100.823 78.4785 100.926 78.8506 101.096 79.1787C101.271 79.501 101.518 79.7559 101.834 79.9434C102.15 80.125 102.534 80.2158 102.985 80.2158C103.454 80.2158 103.891 80.1572 104.295 80.04C104.705 79.917 105.104 79.7383 105.49 79.5039L106.185 81.0859C105.792 81.4023 105.297 81.666 104.699 81.877C104.107 82.082 103.428 82.1846 102.66 82.1846ZM100.823 76.3135H103.996V76.085C103.996 75.6982 103.943 75.3672 103.838 75.0918C103.738 74.8105 103.574 74.5938 103.346 74.4414C103.123 74.2891 102.833 74.2129 102.476 74.2129C102.136 74.2129 101.849 74.3037 101.614 74.4854C101.38 74.6611 101.195 74.9043 101.061 75.2148C100.932 75.5254 100.844 75.877 100.797 76.2695L100.823 76.3135ZM107.775 82V80.4619L109.006 80.1982V74.3008L107.644 74.0371V72.4902H111.396L111.493 73.668L111.511 73.8789C111.745 73.3633 112.035 72.9736 112.381 72.71C112.727 72.4463 113.14 72.3145 113.62 72.3145C113.772 72.3145 113.939 72.3291 114.121 72.3584C114.303 72.3818 114.464 72.4141 114.604 72.4551L114.332 74.8193L113.058 74.749C112.694 74.7314 112.398 74.793 112.17 74.9336C111.947 75.0742 111.748 75.2764 111.572 75.54V80.1982L112.803 80.4619V82H107.775ZM115.413 82V80.4619L116.652 80.1982V74.3008L115.281 74.0371V72.4902H119.219V80.1982L120.449 80.4619V82H115.413ZM116.564 70.4775V68.2891H119.219V70.4775H116.564ZM121.1 82V80.4619L122.471 80.1982V74.292H121.056V72.4902H122.471V71.8398C122.471 70.6445 122.834 69.7246 123.561 69.0801C124.293 68.4297 125.321 68.1045 126.646 68.1045C127.103 68.1045 127.554 68.1514 127.999 68.2451C128.444 68.333 128.96 68.4619 129.546 68.6318L129.177 70.6533C128.772 70.5303 128.386 70.4336 128.017 70.3633C127.647 70.2871 127.278 70.249 126.909 70.249C126.271 70.249 125.799 70.3838 125.494 70.6533C125.189 70.9229 125.037 71.3184 125.037 71.8398V72.4902H130.803V80.1982L132.165 80.4619V82H126.997V80.4619L128.236 80.1982V74.292H125.037V80.1982L126.276 80.4619V82H121.1ZM137.544 82.1846C136.63 82.1846 135.839 81.9795 135.171 81.5693C134.509 81.1592 133.999 80.5938 133.642 79.873C133.284 79.1465 133.105 78.3174 133.105 77.3857V77.1221C133.105 76.1846 133.287 75.3555 133.65 74.6348C134.014 73.9141 134.526 73.3486 135.188 72.9385C135.851 72.5225 136.63 72.3145 137.526 72.3145C138.382 72.3145 139.117 72.4492 139.732 72.7188C140.354 72.9824 140.857 73.29 141.244 73.6416L141.227 76.3662H139.293L138.95 74.6699C138.81 74.5293 138.631 74.415 138.414 74.3271C138.197 74.2393 137.978 74.1953 137.755 74.1953C137.286 74.1953 136.896 74.3125 136.586 74.5469C136.281 74.7812 136.053 75.1152 135.9 75.5488C135.748 75.9824 135.672 76.5068 135.672 77.1221V77.3857C135.672 78.0361 135.757 78.5723 135.927 78.9941C136.097 79.4102 136.322 79.7178 136.604 79.917C136.891 80.1162 137.21 80.2158 137.562 80.2158C138.013 80.2158 138.373 80.0986 138.643 79.8643C138.918 79.624 139.105 79.2871 139.205 78.8535H141.402L141.429 78.9062C141.329 79.5801 141.13 80.1631 140.831 80.6553C140.538 81.1475 140.122 81.5254 139.583 81.7891C139.05 82.0527 138.37 82.1846 137.544 82.1846ZM145.762 82.1846C144.818 82.1846 144.068 81.9326 143.512 81.4287C142.955 80.9189 142.677 80.2275 142.677 79.3545C142.677 78.7568 142.838 78.2324 143.16 77.7812C143.488 77.3301 143.969 76.9756 144.602 76.7178C145.24 76.46 146.025 76.3311 146.957 76.3311H148.214V75.6279C148.214 75.1709 148.079 74.8018 147.81 74.5205C147.546 74.2334 147.147 74.0898 146.614 74.0898C146.339 74.0898 146.093 74.125 145.876 74.1953C145.659 74.2598 145.46 74.3535 145.278 74.4766L145.076 75.7334H143.23L143.195 73.2637C143.693 72.9824 144.232 72.7539 144.812 72.5781C145.393 72.4023 146.04 72.3145 146.755 72.3145C147.997 72.3145 148.979 72.6045 149.699 73.1846C150.42 73.7588 150.78 74.582 150.78 75.6543V79.5742C150.78 79.7031 150.78 79.832 150.78 79.9609C150.786 80.084 150.798 80.2041 150.815 80.3213L151.809 80.4619V82H148.627C148.562 81.8359 148.498 81.6602 148.434 81.4727C148.369 81.2852 148.322 81.0977 148.293 80.9102C147.988 81.2969 147.628 81.6074 147.212 81.8418C146.802 82.0703 146.318 82.1846 145.762 82.1846ZM146.447 80.2861C146.805 80.2861 147.145 80.207 147.467 80.0488C147.789 79.8848 148.038 79.6709 148.214 79.4072V77.9043H146.948C146.386 77.9043 145.958 78.0332 145.665 78.291C145.378 78.5488 145.234 78.8594 145.234 79.2227C145.234 79.5625 145.34 79.8262 145.551 80.0137C145.768 80.1953 146.066 80.2861 146.447 80.2861ZM156.379 82.1846C155.623 82.1846 154.973 81.9912 154.428 81.6045C153.889 81.2119 153.476 80.667 153.188 79.9697C152.901 79.2666 152.758 78.4463 152.758 77.5088V77.3242C152.758 76.3223 152.901 75.4463 153.188 74.6963C153.481 73.9463 153.897 73.3633 154.437 72.9473C154.976 72.5254 155.62 72.3145 156.37 72.3145C156.892 72.3145 157.349 72.4199 157.741 72.6309C158.134 72.8359 158.474 73.1289 158.761 73.5098V70.0996L157.39 69.8359V68.2891H158.761H161.327V80.1982L162.558 80.4619V82H159.104L158.91 80.8398C158.611 81.2793 158.254 81.6133 157.838 81.8418C157.428 82.0703 156.941 82.1846 156.379 82.1846ZM157.144 80.1895C157.501 80.1895 157.814 80.1133 158.084 79.9609C158.354 79.8086 158.579 79.5889 158.761 79.3018V75.2676C158.585 74.9629 158.362 74.7285 158.093 74.5645C157.823 74.3945 157.513 74.3096 157.161 74.3096C156.733 74.3096 156.382 74.4385 156.106 74.6963C155.837 74.9482 155.638 75.2998 155.509 75.751C155.386 76.2021 155.324 76.7266 155.324 77.3242V77.5088C155.324 78.3408 155.465 78.9971 155.746 79.4775C156.027 79.9521 156.493 80.1895 157.144 80.1895ZM167.893 82.1846C166.955 82.1846 166.149 81.9795 165.476 81.5693C164.802 81.1592 164.286 80.5908 163.929 79.8643C163.571 79.1318 163.393 78.291 163.393 77.3418V77.1572C163.393 76.2139 163.571 75.3789 163.929 74.6523C164.286 73.9199 164.799 73.3486 165.467 72.9385C166.141 72.5225 166.943 72.3145 167.875 72.3145C168.818 72.3145 169.624 72.5225 170.292 72.9385C170.96 73.3486 171.473 73.917 171.83 74.6436C172.188 75.3701 172.366 76.208 172.366 77.1572V77.3418C172.366 78.291 172.188 79.1318 171.83 79.8643C171.473 80.5908 170.96 81.1592 170.292 81.5693C169.624 81.9795 168.824 82.1846 167.893 82.1846ZM167.893 80.2158C168.338 80.2158 168.701 80.0957 168.982 79.8555C169.264 79.6152 169.472 79.2812 169.606 78.8535C169.741 78.4199 169.809 77.916 169.809 77.3418V77.1572C169.809 76.5947 169.741 76.0996 169.606 75.6719C169.472 75.2383 169.261 74.9014 168.974 74.6611C168.692 74.415 168.326 74.292 167.875 74.292C167.436 74.292 167.072 74.415 166.785 74.6611C166.498 74.9014 166.287 75.2383 166.152 75.6719C166.023 76.0996 165.959 76.5947 165.959 77.1572V77.3418C165.959 77.916 166.023 78.4199 166.152 78.8535C166.287 79.2871 166.498 79.624 166.785 79.8643C167.072 80.0986 167.441 80.2158 167.893 80.2158ZM177.596 82.1846C176.887 82.1846 176.225 82.1172 175.609 81.9824C175 81.8477 174.414 81.6543 173.852 81.4023L173.825 78.7129H175.609L175.952 80.084C176.151 80.1836 176.368 80.2627 176.603 80.3213C176.843 80.3799 177.115 80.4092 177.42 80.4092C177.994 80.4092 178.398 80.3154 178.633 80.1279C178.867 79.9404 178.984 79.7061 178.984 79.4248C178.984 79.1611 178.858 78.9297 178.606 78.7305C178.36 78.5254 177.865 78.3467 177.121 78.1943C175.996 77.96 175.167 77.5967 174.634 77.1045C174.101 76.6123 173.834 75.9824 173.834 75.2148C173.834 74.6875 173.966 74.207 174.229 73.7734C174.499 73.3398 174.906 72.9912 175.451 72.7275C176.002 72.4639 176.705 72.332 177.561 72.332C178.275 72.332 178.929 72.4023 179.521 72.543C180.118 72.6777 180.619 72.8564 181.023 73.0791L181.05 75.6807H179.274L179.002 74.4326C178.844 74.3154 178.656 74.2275 178.439 74.1689C178.229 74.1104 177.988 74.0811 177.719 74.0811C177.268 74.0811 176.922 74.1719 176.682 74.3535C176.441 74.5352 176.321 74.7695 176.321 75.0566C176.321 75.2207 176.362 75.373 176.444 75.5137C176.532 75.6543 176.702 75.7861 176.954 75.9092C177.206 76.0322 177.572 76.1494 178.053 76.2607C179.23 76.5303 180.089 76.8906 180.628 77.3418C181.167 77.7871 181.437 78.4141 181.437 79.2227C181.437 80.1074 181.114 80.8223 180.47 81.3672C179.831 81.9121 178.873 82.1846 177.596 82.1846Z" fill="black"/>
</svg>
