<svg width="164" height="87" viewBox="0 0 164 87" fill="none" xmlns="http://www.w3.org/2000/svg">
<path d="M89.1111 57.7523H88.7502C85.0606 56.7898 81.8924 54.9852 79.2455 52.3383C77.7215 50.8143 76.3981 48.769 75.2752 46.2023C74.2325 43.5555 73.7111 41.1492 73.7111 38.9836C73.7111 36.8982 74.4731 35.1336 75.9971 33.6898C77.521 32.1659 79.3658 31.4039 81.5314 31.4039C83.6971 31.4039 85.5419 32.1659 87.0658 33.6898C88.67 35.1336 89.4721 36.8982 89.4721 38.9836C89.4721 40.3471 89.9533 41.5102 90.9158 42.4727C91.9585 43.4352 93.2419 43.9164 94.7658 43.9164C96.2898 43.9164 97.5731 43.4352 98.6158 42.4727C99.6585 41.5102 100.18 40.3471 100.18 38.9836C100.18 34.1711 98.3351 30.0404 94.6455 26.5914C91.0361 23.1424 86.6648 21.418 81.5314 21.418C77.8419 21.418 74.4731 22.3805 71.4252 24.3055C68.3773 26.1503 66.0913 28.6367 64.5674 31.7648C63.6049 33.7701 63.1236 36.1763 63.1236 38.9836C63.1236 42.1919 63.6851 45.2799 64.808 48.2477C65.0486 49.0497 64.7679 49.5711 63.9658 49.8117C63.1637 50.0523 62.6424 49.8117 62.4018 49.0898C61.1184 45.8013 60.4768 42.4326 60.4768 38.9836C60.4768 35.8555 61.0783 33.0883 62.2814 30.682C63.9658 27.0727 66.5325 24.1852 69.9814 22.0195C73.5106 19.8539 77.3606 18.7711 81.5314 18.7711C87.3867 18.7711 92.3596 20.7763 96.4502 24.7867C100.621 28.7169 102.706 33.4492 102.706 38.9836C102.706 41.069 101.904 42.8336 100.3 44.2773C98.7762 45.7211 96.9314 46.443 94.7658 46.443C92.6002 46.443 90.7554 45.7211 89.2314 44.2773C87.7075 42.8336 86.9455 41.069 86.9455 38.9836C86.9455 37.6201 86.4242 36.457 85.3814 35.4945C84.3387 34.4518 83.0554 33.9305 81.5314 33.9305C80.0075 33.9305 78.7242 34.4518 77.6814 35.4945C76.7189 36.457 76.2377 37.6201 76.2377 38.9836C76.2377 43.4753 77.8419 47.3253 81.0502 50.5336C83.296 52.7794 86.1033 54.3435 89.4721 55.2258C90.1939 55.306 90.4747 55.8273 90.3143 56.7898C90.1538 57.4315 89.7528 57.7523 89.1111 57.7523ZM82.7346 38.9836C82.7346 41.9513 83.8174 44.518 85.983 46.6836C88.2288 48.8492 90.996 49.932 94.2846 49.932C94.445 49.932 94.8059 49.8919 95.3674 49.8117C95.9288 49.7315 96.37 49.6914 96.6908 49.6914C97.0919 49.6914 97.4528 49.7716 97.7736 49.932C98.1747 50.0122 98.4153 50.2529 98.4955 50.6539C98.6559 51.5362 98.295 52.0576 97.4127 52.218C96.4502 52.3784 95.4075 52.4586 94.2846 52.4586C91.0762 52.4586 88.4294 51.6966 86.3439 50.1727C82.2533 47.3654 80.208 43.6357 80.208 38.9836C80.208 38.1013 80.6492 37.6602 81.5314 37.6602C82.3335 37.6602 82.7346 38.1013 82.7346 38.9836ZM75.8768 57.2711C75.5559 57.2711 75.2752 57.1508 75.0346 56.9102C72.8689 54.7445 71.1445 52.4586 69.8611 50.0523C68.0163 46.844 67.0939 43.1544 67.0939 38.9836C67.0939 35.2138 68.4976 31.9654 71.3049 29.2383C74.1924 26.5112 77.6413 25.1477 81.6518 25.1477C85.6622 25.1477 89.071 26.5112 91.8783 29.2383C94.7658 31.9654 96.2096 35.2138 96.2096 38.9836C96.2096 39.7857 95.7684 40.1867 94.8861 40.1867C94.0038 40.1867 93.5627 39.7857 93.5627 38.9836C93.5627 35.8555 92.3997 33.2086 90.0736 31.043C87.7476 28.7971 84.9403 27.6742 81.6518 27.6742C78.3632 27.6742 75.5559 28.7971 73.2299 31.043C70.9038 33.2086 69.7408 35.8555 69.7408 38.9836C69.7408 42.8336 70.5028 46.1221 72.0268 48.8492C73.0695 50.694 74.6736 52.7794 76.8393 55.1055C77.4809 55.6669 77.4809 56.2685 76.8393 56.9102C76.5986 57.1508 76.2778 57.2711 75.8768 57.2711ZM59.8752 26.2305C58.9929 26.2305 58.5518 25.8294 58.5518 25.0273C58.5518 24.8669 58.632 24.6263 58.7924 24.3055C61.3591 20.6159 64.5674 17.8086 68.4174 15.8836C72.4278 13.7982 76.8393 12.7555 81.6518 12.7555C86.4643 12.7555 90.8757 13.7982 94.8861 15.8836C98.8163 17.8086 102.025 20.5758 104.511 24.1852C104.672 24.506 104.752 24.7466 104.752 24.907C104.752 25.4685 104.431 25.8695 103.789 26.1102C103.148 26.3508 102.666 26.1904 102.346 25.6289C99.9393 22.3404 97.0518 19.8539 93.683 18.1695C89.9934 16.3247 85.983 15.4023 81.6518 15.4023C77.3205 15.3221 73.3101 16.2445 69.6205 18.1695C66.0111 20.0143 63.0835 22.5409 60.8377 25.7492C60.5971 26.0701 60.2762 26.2305 59.8752 26.2305ZM96.5705 12.7555C96.2497 12.7555 96.0492 12.7154 95.9689 12.6352C91.2367 10.2289 86.4643 9.02578 81.6518 9.02578C76.4382 9.02578 71.6658 10.2289 67.3346 12.6352C66.9335 12.8758 66.5325 12.8758 66.1314 12.6352C65.7304 12.3945 65.5299 12.0336 65.5299 11.5523C65.5299 10.9909 65.7304 10.5898 66.1314 10.3492C70.7835 7.78255 75.957 6.49922 81.6518 6.49922C86.8653 6.49922 92.0387 7.78255 97.1721 10.3492C97.8939 10.7503 98.0544 11.3117 97.6533 12.0336C97.3325 12.5148 96.9715 12.7555 96.5705 12.7555Z" fill="#F44336"/>
<path d="M7.89062 82V80.4619L9.25293 80.1982V71.0137L7.89062 70.75V69.2031H13.1816V70.75L11.8193 71.0137V80.1982L13.1816 80.4619V82H7.89062ZM14.1309 82V80.4619L15.3701 80.1982V74.3008L13.999 74.0371V72.4902H17.752L17.8574 73.7471C18.1621 73.29 18.543 72.9385 19 72.6924C19.4629 72.4404 19.9961 72.3145 20.5996 72.3145C21.209 72.3145 21.7305 72.4492 22.1641 72.7188C22.6035 72.9883 22.9316 73.3955 23.1484 73.9404C23.4414 73.4307 23.8223 73.0322 24.291 72.7451C24.7598 72.458 25.3105 72.3145 25.9434 72.3145C26.8809 72.3145 27.6191 72.6338 28.1582 73.2725C28.7031 73.9111 28.9756 74.8838 28.9756 76.1904V80.1982L30.2148 80.4619V82H25.3018V80.4619L26.4092 80.1982V76.1816C26.4092 75.4785 26.292 74.9922 26.0576 74.7227C25.8291 74.4473 25.4951 74.3096 25.0557 74.3096C24.6572 74.3096 24.3203 74.4238 24.0449 74.6523C23.7695 74.875 23.5703 75.1709 23.4473 75.54V80.1982L24.4844 80.4619V82H19.8525V80.4619L20.8896 80.1982V76.1816C20.8896 75.4961 20.7725 75.0127 20.5381 74.7314C20.3096 74.4502 19.9697 74.3096 19.5186 74.3096C19.1553 74.3096 18.8418 74.3828 18.5781 74.5293C18.3145 74.6758 18.0977 74.8867 17.9277 75.1621V80.1982L19.0352 80.4619V82H14.1309ZM31.0234 85.6562V84.1094L32.2627 83.8457V74.3008L30.8916 74.0371V72.4902H34.6182L34.7412 73.5977C35.0225 73.1875 35.3623 72.8711 35.7607 72.6484C36.1592 72.4258 36.6338 72.3145 37.1846 72.3145C37.9521 72.3145 38.6084 72.5254 39.1533 72.9473C39.6982 73.3633 40.1143 73.9463 40.4014 74.6963C40.6943 75.4463 40.8408 76.3223 40.8408 77.3242V77.5088C40.8408 78.4463 40.6943 79.2666 40.4014 79.9697C40.1143 80.667 39.6953 81.2119 39.1445 81.6045C38.5996 81.9912 37.9404 82.1846 37.167 82.1846C36.6572 82.1846 36.2061 82.0938 35.8135 81.9121C35.4268 81.7246 35.0957 81.4521 34.8203 81.0947V83.8457L36.0596 84.1094V85.6562H31.0234ZM36.4023 80.2158C37.0586 80.2158 37.5332 79.9727 37.8262 79.4863C38.125 79 38.2744 78.3408 38.2744 77.5088V77.3242C38.2744 76.7207 38.207 76.1963 38.0723 75.751C37.9375 75.2998 37.7295 74.9482 37.4482 74.6963C37.1729 74.4385 36.8184 74.3096 36.3848 74.3096C36.0332 74.3096 35.7227 74.3887 35.4531 74.5469C35.1895 74.7051 34.9785 74.9307 34.8203 75.2236V79.3896C34.9785 79.6592 35.1895 79.8643 35.4531 80.0049C35.7227 80.1455 36.0391 80.2158 36.4023 80.2158ZM42.1768 82V80.4619L43.4072 80.1982V74.3008L42.0449 74.0371V72.4902H45.7979L45.8945 73.668L45.9121 73.8789C46.1465 73.3633 46.4365 72.9736 46.7822 72.71C47.1279 72.4463 47.541 72.3145 48.0215 72.3145C48.1738 72.3145 48.3408 72.3291 48.5225 72.3584C48.7041 72.3818 48.8652 72.4141 49.0059 72.4551L48.7334 74.8193L47.459 74.749C47.0957 74.7314 46.7998 74.793 46.5713 74.9336C46.3486 75.0742 46.1494 75.2764 45.9736 75.54V80.1982L47.2041 80.4619V82H42.1768ZM54.1475 82.1846C53.2393 82.1846 52.4453 81.9854 51.7656 81.5869C51.0859 81.1826 50.5586 80.6289 50.1836 79.9258C49.8145 79.2227 49.6299 78.4199 49.6299 77.5176V77.166C49.6299 76.2227 49.8057 75.3877 50.1572 74.6611C50.5088 73.9287 51.0039 73.3545 51.6426 72.9385C52.2871 72.5166 53.0459 72.3086 53.9189 72.3145C54.7803 72.3145 55.5039 72.4844 56.0898 72.8242C56.6758 73.1641 57.1211 73.6533 57.4258 74.292C57.7305 74.9307 57.8828 75.7041 57.8828 76.6123V78.0098H52.293L52.2754 78.0625C52.3105 78.4785 52.4131 78.8506 52.583 79.1787C52.7588 79.501 53.0049 79.7559 53.3213 79.9434C53.6377 80.125 54.0215 80.2158 54.4727 80.2158C54.9414 80.2158 55.3779 80.1572 55.7822 80.04C56.1924 79.917 56.5908 79.7383 56.9775 79.5039L57.6719 81.0859C57.2793 81.4023 56.7842 81.666 56.1865 81.877C55.5947 82.082 54.915 82.1846 54.1475 82.1846ZM52.3105 76.3135H55.4834V76.085C55.4834 75.6982 55.4307 75.3672 55.3252 75.0918C55.2256 74.8105 55.0615 74.5938 54.833 74.4414C54.6104 74.2891 54.3203 74.2129 53.9629 74.2129C53.623 74.2129 53.3359 74.3037 53.1016 74.4854C52.8672 74.6611 52.6826 74.9043 52.5479 75.2148C52.4189 75.5254 52.3311 75.877 52.2842 76.2695L52.3105 76.3135ZM63.165 82.1846C62.4561 82.1846 61.7939 82.1172 61.1787 81.9824C60.5693 81.8477 59.9834 81.6543 59.4209 81.4023L59.3945 78.7129H61.1787L61.5215 80.084C61.7207 80.1836 61.9375 80.2627 62.1719 80.3213C62.4121 80.3799 62.6846 80.4092 62.9893 80.4092C63.5635 80.4092 63.9678 80.3154 64.2021 80.1279C64.4365 79.9404 64.5537 79.7061 64.5537 79.4248C64.5537 79.1611 64.4277 78.9297 64.1758 78.7305C63.9297 78.5254 63.4346 78.3467 62.6904 78.1943C61.5654 77.96 60.7363 77.5967 60.2031 77.1045C59.6699 76.6123 59.4033 75.9824 59.4033 75.2148C59.4033 74.6875 59.5352 74.207 59.7988 73.7734C60.0684 73.3398 60.4756 72.9912 61.0205 72.7275C61.5713 72.4639 62.2744 72.332 63.1299 72.332C63.8447 72.332 64.498 72.4023 65.0898 72.543C65.6875 72.6777 66.1885 72.8564 66.5928 73.0791L66.6191 75.6807H64.8438L64.5713 74.4326C64.4131 74.3154 64.2256 74.2275 64.0088 74.1689C63.7979 74.1104 63.5576 74.0811 63.2881 74.0811C62.8369 74.0811 62.4912 74.1719 62.251 74.3535C62.0107 74.5352 61.8906 74.7695 61.8906 75.0566C61.8906 75.2207 61.9316 75.373 62.0137 75.5137C62.1016 75.6543 62.2715 75.7861 62.5234 75.9092C62.7754 76.0322 63.1416 76.1494 63.6221 76.2607C64.7998 76.5303 65.6582 76.8906 66.1973 77.3418C66.7363 77.7871 67.0059 78.4141 67.0059 79.2227C67.0059 80.1074 66.6836 80.8223 66.0391 81.3672C65.4004 81.9121 64.4424 82.1846 63.165 82.1846ZM72.2529 82.1846C71.5439 82.1846 70.8818 82.1172 70.2666 81.9824C69.6572 81.8477 69.0713 81.6543 68.5088 81.4023L68.4824 78.7129H70.2666L70.6094 80.084C70.8086 80.1836 71.0254 80.2627 71.2598 80.3213C71.5 80.3799 71.7725 80.4092 72.0771 80.4092C72.6514 80.4092 73.0557 80.3154 73.29 80.1279C73.5244 79.9404 73.6416 79.7061 73.6416 79.4248C73.6416 79.1611 73.5156 78.9297 73.2637 78.7305C73.0176 78.5254 72.5225 78.3467 71.7783 78.1943C70.6533 77.96 69.8242 77.5967 69.291 77.1045C68.7578 76.6123 68.4912 75.9824 68.4912 75.2148C68.4912 74.6875 68.623 74.207 68.8867 73.7734C69.1562 73.3398 69.5635 72.9912 70.1084 72.7275C70.6592 72.4639 71.3623 72.332 72.2178 72.332C72.9326 72.332 73.5859 72.4023 74.1777 72.543C74.7754 72.6777 75.2764 72.8564 75.6807 73.0791L75.707 75.6807H73.9316L73.6592 74.4326C73.501 74.3154 73.3135 74.2275 73.0967 74.1689C72.8857 74.1104 72.6455 74.0811 72.376 74.0811C71.9248 74.0811 71.5791 74.1719 71.3389 74.3535C71.0986 74.5352 70.9785 74.7695 70.9785 75.0566C70.9785 75.2207 71.0195 75.373 71.1016 75.5137C71.1895 75.6543 71.3594 75.7861 71.6113 75.9092C71.8633 76.0322 72.2295 76.1494 72.71 76.2607C73.8877 76.5303 74.7461 76.8906 75.2852 77.3418C75.8242 77.7871 76.0938 78.4141 76.0938 79.2227C76.0938 80.1074 75.7715 80.8223 75.127 81.3672C74.4883 81.9121 73.5303 82.1846 72.2529 82.1846ZM80.4443 82.1846C79.501 82.1846 78.751 81.9326 78.1943 81.4287C77.6377 80.9189 77.3594 80.2275 77.3594 79.3545C77.3594 78.7568 77.5205 78.2324 77.8428 77.7812C78.1709 77.3301 78.6514 76.9756 79.2842 76.7178C79.9229 76.46 80.708 76.3311 81.6396 76.3311H82.8965V75.6279C82.8965 75.1709 82.7617 74.8018 82.4922 74.5205C82.2285 74.2334 81.8301 74.0898 81.2969 74.0898C81.0215 74.0898 80.7754 74.125 80.5586 74.1953C80.3418 74.2598 80.1426 74.3535 79.9609 74.4766L79.7588 75.7334H77.9131L77.8779 73.2637C78.376 72.9824 78.915 72.7539 79.4951 72.5781C80.0752 72.4023 80.7227 72.3145 81.4375 72.3145C82.6797 72.3145 83.6611 72.6045 84.3818 73.1846C85.1025 73.7588 85.4629 74.582 85.4629 75.6543V79.5742C85.4629 79.7031 85.4629 79.832 85.4629 79.9609C85.4688 80.084 85.4805 80.2041 85.498 80.3213L86.4912 80.4619V82H83.3096C83.2451 81.8359 83.1807 81.6602 83.1162 81.4727C83.0518 81.2852 83.0049 81.0977 82.9756 80.9102C82.6709 81.2969 82.3105 81.6074 81.8945 81.8418C81.4844 82.0703 81.001 82.1846 80.4443 82.1846ZM81.1299 80.2861C81.4873 80.2861 81.8271 80.207 82.1494 80.0488C82.4717 79.8848 82.7207 79.6709 82.8965 79.4072V77.9043H81.6309C81.0684 77.9043 80.6406 78.0332 80.3477 78.291C80.0605 78.5488 79.917 78.8594 79.917 79.2227C79.917 79.5625 80.0225 79.8262 80.2334 80.0137C80.4502 80.1953 80.749 80.2861 81.1299 80.2861ZM79.5479 70.7236L78.2207 70.3721C78.2207 69.9795 78.3115 69.6162 78.4932 69.2822C78.6807 68.9482 78.9268 68.6787 79.2314 68.4736C79.5361 68.2686 79.8672 68.166 80.2246 68.166C80.5059 68.166 80.7988 68.2363 81.1035 68.377C81.4082 68.5176 81.6982 68.6611 81.9736 68.8076C82.2549 68.9482 82.4922 69.0186 82.6855 69.0186C82.9258 69.0127 83.1162 68.9219 83.2568 68.7461C83.4033 68.5645 83.4766 68.3359 83.4766 68.0605L84.8037 68.4297C84.8037 68.834 84.71 69.2031 84.5225 69.5371C84.3408 69.8652 84.0977 70.1289 83.793 70.3281C83.4883 70.5215 83.1543 70.6182 82.791 70.6182C82.4863 70.6182 82.1816 70.5479 81.877 70.4072C81.5723 70.2666 81.2881 70.126 81.0244 69.9854C80.7607 69.8389 80.5293 69.7656 80.3301 69.7656C80.0898 69.7656 79.8994 69.8594 79.7588 70.0469C79.6182 70.2344 79.5479 70.46 79.5479 70.7236ZM91.9404 82.1846C91.0029 82.1846 90.1973 81.9795 89.5234 81.5693C88.8496 81.1592 88.334 80.5908 87.9766 79.8643C87.6191 79.1318 87.4404 78.291 87.4404 77.3418V77.1572C87.4404 76.2139 87.6191 75.3789 87.9766 74.6523C88.334 73.9199 88.8467 73.3486 89.5146 72.9385C90.1885 72.5225 90.9912 72.3145 91.9229 72.3145C92.8662 72.3145 93.6719 72.5225 94.3398 72.9385C95.0078 73.3486 95.5205 73.917 95.8779 74.6436C96.2354 75.3701 96.4141 76.208 96.4141 77.1572V77.3418C96.4141 78.291 96.2354 79.1318 95.8779 79.8643C95.5205 80.5908 95.0078 81.1592 94.3398 81.5693C93.6719 81.9795 92.8721 82.1846 91.9404 82.1846ZM91.9404 80.2158C92.3857 80.2158 92.749 80.0957 93.0303 79.8555C93.3115 79.6152 93.5195 79.2812 93.6543 78.8535C93.7891 78.4199 93.8564 77.916 93.8564 77.3418V77.1572C93.8564 76.5947 93.7891 76.0996 93.6543 75.6719C93.5195 75.2383 93.3086 74.9014 93.0215 74.6611C92.7402 74.415 92.374 74.292 91.9229 74.292C91.4834 74.292 91.1201 74.415 90.833 74.6611C90.5459 74.9014 90.335 75.2383 90.2002 75.6719C90.0713 76.0996 90.0068 76.5947 90.0068 77.1572V77.3418C90.0068 77.916 90.0713 78.4199 90.2002 78.8535C90.335 79.2871 90.5459 79.624 90.833 79.8643C91.1201 80.0986 91.4893 80.2158 91.9404 80.2158ZM105.634 82.1846C104.878 82.1846 104.228 81.9912 103.683 81.6045C103.144 81.2119 102.73 80.667 102.443 79.9697C102.156 79.2666 102.013 78.4463 102.013 77.5088V77.3242C102.013 76.3223 102.156 75.4463 102.443 74.6963C102.736 73.9463 103.152 73.3633 103.691 72.9473C104.23 72.5254 104.875 72.3145 105.625 72.3145C106.146 72.3145 106.604 72.4199 106.996 72.6309C107.389 72.8359 107.729 73.1289 108.016 73.5098V70.0996L106.645 69.8359V68.2891H108.016H110.582V80.1982L111.812 80.4619V82H108.358L108.165 80.8398C107.866 81.2793 107.509 81.6133 107.093 81.8418C106.683 82.0703 106.196 82.1846 105.634 82.1846ZM106.398 80.1895C106.756 80.1895 107.069 80.1133 107.339 79.9609C107.608 79.8086 107.834 79.5889 108.016 79.3018V75.2676C107.84 74.9629 107.617 74.7285 107.348 74.5645C107.078 74.3945 106.768 74.3096 106.416 74.3096C105.988 74.3096 105.637 74.4385 105.361 74.6963C105.092 74.9482 104.893 75.2998 104.764 75.751C104.641 76.2021 104.579 76.7266 104.579 77.3242V77.5088C104.579 78.3408 104.72 78.9971 105.001 79.4775C105.282 79.9521 105.748 80.1895 106.398 80.1895ZM112.551 82V80.4619L113.79 80.1982V74.3008L112.419 74.0371V72.4902H116.356V80.1982L117.587 80.4619V82H112.551ZM113.702 70.4775V68.2891H116.356V70.4775H113.702ZM122.641 85.8408C122.16 85.8408 121.621 85.7793 121.023 85.6562C120.426 85.5332 119.898 85.3574 119.441 85.1289L119.916 83.3008C120.326 83.4766 120.76 83.6143 121.217 83.7139C121.68 83.8193 122.11 83.8721 122.509 83.8721C123.194 83.8721 123.695 83.6816 124.012 83.3008C124.334 82.9199 124.495 82.3896 124.495 81.71V81.0859C124.214 81.4434 123.883 81.7158 123.502 81.9033C123.121 82.0908 122.685 82.1846 122.192 82.1846C121.419 82.1846 120.754 81.9912 120.197 81.6045C119.641 81.2119 119.216 80.6641 118.923 79.9609C118.63 79.2578 118.483 78.4404 118.483 77.5088V77.3242C118.483 76.3223 118.63 75.4463 118.923 74.6963C119.216 73.9463 119.635 73.3633 120.18 72.9473C120.725 72.5254 121.378 72.3145 122.14 72.3145C122.708 72.3145 123.197 72.4346 123.607 72.6748C124.018 72.9092 124.366 73.2461 124.653 73.6855L124.838 72.4902H127.07V81.7188C127.07 82.5566 126.892 83.2832 126.534 83.8984C126.183 84.5137 125.676 84.9912 125.014 85.3311C124.352 85.6709 123.561 85.8408 122.641 85.8408ZM122.913 80.1895C123.276 80.1895 123.59 80.1191 123.854 79.9785C124.117 79.832 124.331 79.6211 124.495 79.3457V75.2148C124.331 74.9277 124.114 74.7051 123.845 74.5469C123.581 74.3887 123.273 74.3096 122.922 74.3096C122.482 74.3096 122.125 74.4385 121.85 74.6963C121.574 74.9482 121.372 75.2998 121.243 75.751C121.114 76.1963 121.05 76.7207 121.05 77.3242V77.5088C121.05 78.3408 121.193 78.9971 121.48 79.4775C121.768 79.9521 122.245 80.1895 122.913 80.1895ZM126.745 74.3447L125.629 72.4902H128.187V74.0371L126.745 74.3447ZM128.898 82V80.4619L130.138 80.1982V74.3008L128.767 74.0371V72.4902H132.704V80.1982L133.935 80.4619V82H128.898ZM130.05 70.4775V68.2891H132.704V70.4775H130.05ZM138.531 82.1846C137.646 82.1846 136.964 81.9414 136.483 81.4551C136.009 80.9688 135.771 80.1982 135.771 79.1436V74.292H134.462V72.4902H135.771V70.1611H138.329V72.4902H140.078V74.292H138.329V79.1348C138.329 79.5039 138.405 79.7676 138.558 79.9258C138.716 80.084 138.93 80.1631 139.199 80.1631C139.346 80.1631 139.498 80.1543 139.656 80.1367C139.82 80.1133 139.961 80.0898 140.078 80.0664L140.298 81.9209C140.034 81.9971 139.747 82.0586 139.437 82.1055C139.132 82.1582 138.83 82.1846 138.531 82.1846ZM144.446 82.1846C143.503 82.1846 142.753 81.9326 142.196 81.4287C141.64 80.9189 141.361 80.2275 141.361 79.3545C141.361 78.7568 141.522 78.2324 141.845 77.7812C142.173 77.3301 142.653 76.9756 143.286 76.7178C143.925 76.46 144.71 76.3311 145.642 76.3311H146.898V75.6279C146.898 75.1709 146.764 74.8018 146.494 74.5205C146.23 74.2334 145.832 74.0898 145.299 74.0898C145.023 74.0898 144.777 74.125 144.561 74.1953C144.344 74.2598 144.145 74.3535 143.963 74.4766L143.761 75.7334H141.915L141.88 73.2637C142.378 72.9824 142.917 72.7539 143.497 72.5781C144.077 72.4023 144.725 72.3145 145.439 72.3145C146.682 72.3145 147.663 72.6045 148.384 73.1846C149.104 73.7588 149.465 74.582 149.465 75.6543V79.5742C149.465 79.7031 149.465 79.832 149.465 79.9609C149.471 80.084 149.482 80.2041 149.5 80.3213L150.493 80.4619V82H147.312C147.247 81.8359 147.183 81.6602 147.118 81.4727C147.054 81.2852 147.007 81.0977 146.978 80.9102C146.673 81.2969 146.312 81.6074 145.896 81.8418C145.486 82.0703 145.003 82.1846 144.446 82.1846ZM145.132 80.2861C145.489 80.2861 145.829 80.207 146.151 80.0488C146.474 79.8848 146.723 79.6709 146.898 79.4072V77.9043H145.633C145.07 77.9043 144.643 78.0332 144.35 78.291C144.062 78.5488 143.919 78.8594 143.919 79.2227C143.919 79.5625 144.024 79.8262 144.235 80.0137C144.452 80.1953 144.751 80.2861 145.132 80.2861ZM151.267 82V80.4619L152.506 80.1982V70.0996L151.135 69.8359V68.2891H155.072V80.1982L156.312 80.4619V82H151.267Z" fill="black"/>
</svg>
